# Blender 3.5.1
# www.blender.org
mtllib rail_node.mtl
o Rail_Node
v -0.707107 0.075000 -0.707107
v 0.707107 0.075000 -0.707107
v 0.707107 0.075000 0.707107
v -0.707107 0.075000 0.707107
v -0.665352 0.000000 -0.665352
v 0.665352 0.000000 -0.665352
v 0.665352 0.000000 0.665352
v -0.665352 0.000000 0.665352
v -0.672095 0.055486 -0.672095
v 0.672095 0.055486 -0.672095
v -0.672095 0.055486 0.672095
v 0.672095 0.055486 0.672095
v -0.707107 -0.075000 -0.707107
v 0.707107 -0.075000 -0.707107
v 0.707107 -0.075000 0.707107
v -0.707107 -0.075000 0.707107
v -0.672095 -0.055486 -0.672095
v 0.672095 -0.055486 -0.672095
v -0.672095 -0.055486 0.672095
v 0.672095 -0.055486 0.672095
v -0.008233 1.952877 0.008233
v 0.008233 1.952877 0.008233
v 0.008233 1.952877 -0.008233
v -0.008233 1.952877 -0.008233
v -0.008233 -1.952877 -0.008233
v 0.008233 -1.952877 -0.008233
v 0.008233 -1.952877 0.008233
v -0.008233 -1.952877 0.008233
vn 0.9372 0.3488 -0.0000
vn -0.0000 0.3488 0.9372
vn -0.9372 -0.3488 -0.0000
vn -0.0000 0.3488 -0.9372
vn -0.0000 -0.1206 -0.9927
vn -0.9927 -0.1206 -0.0000
vn -0.0000 -0.1206 0.9927
vn 0.4868 -0.8735 -0.0000
vn -0.0000 -0.8735 0.4868
vn -0.4868 -0.8735 -0.0000
vn -0.0000 -0.8735 -0.4868
vn 0.9927 -0.1206 -0.0000
vn 0.9372 -0.3488 -0.0000
vn -0.0000 -0.3488 0.9372
vn -0.0000 -0.3488 -0.9372
vn -0.0000 0.1206 -0.9927
vn -0.9927 0.1206 -0.0000
vn -0.0000 0.1206 0.9927
vn 0.4868 0.8735 -0.0000
vn -0.0000 0.8735 0.4868
vn -0.4868 0.8735 -0.0000
vn -0.0000 0.8735 -0.4868
vn 0.9927 0.1206 -0.0000
vn -0.0000 1.0000 -0.0000
vn -0.0000 -1.0000 -0.0000
vn -0.9372 0.3488 -0.0000
vt 0.250000 0.490000
vt 0.490000 0.250000
vt 0.250000 0.010000
vt 0.010000 0.250000
vt 0.250000 0.490000
vt 0.490000 0.250000
vt 0.250000 0.010000
vt 0.010000 0.250000
vt 0.250000 0.490000
vt 0.490000 0.250000
vt 0.010000 0.250000
vt 0.250000 0.010000
vt 0.250000 0.490000
vt 0.490000 0.250000
vt 0.250000 0.010000
vt 0.010000 0.250000
vt 0.250000 0.490000
vt 0.490000 0.250000
vt 0.010000 0.250000
vt 0.250000 0.010000
vt 0.247206 0.250000
vt 0.250000 0.247206
vt 0.252795 0.250000
vt 0.250000 0.252795
vt 0.250000 0.252795
vt 0.252795 0.250000
vt 0.250000 0.247206
vt 0.247206 0.250000
s 0
usemtl Rail_Node_Material
f 2/2/1 23/23/1 22/22/1 3/3/1
f 3/3/2 22/22/2 21/21/2 4/4/2
f 16/16/3 13/13/3 25/25/3 28/28/3
f 1/1/4 24/24/4 23/23/4 2/2/4
f 9/9/5 10/10/5 6/6/5 5/5/5
f 11/11/6 9/9/6 5/5/6 8/8/6
f 12/12/7 11/11/7 8/8/7 7/7/7
f 2/2/8 3/3/8 12/12/8 10/10/8
f 3/3/9 4/4/9 11/11/9 12/12/9
f 4/4/10 1/1/10 9/9/10 11/11/10
f 1/1/11 2/2/11 10/10/11 9/9/11
f 10/10/12 12/12/12 7/7/12 6/6/12
f 14/14/13 15/15/13 27/27/13 26/26/13
f 15/15/14 16/16/14 28/28/14 27/27/14
f 13/13/15 14/14/15 26/26/15 25/25/15
f 17/17/16 5/5/16 6/6/16 18/18/16
f 19/19/17 8/8/17 5/5/17 17/17/17
f 20/20/18 7/7/18 8/8/18 19/19/18
f 14/14/19 18/18/19 20/20/19 15/15/19
f 15/15/20 20/20/20 19/19/20 16/16/20
f 16/16/21 19/19/21 17/17/21 13/13/21
f 13/13/22 17/17/22 18/18/22 14/14/22
f 18/18/23 6/6/23 7/7/23 20/20/23
f 21/21/24 22/22/24 23/23/24 24/24/24
f 25/25/25 26/26/25 27/27/25 28/28/25
f 4/4/26 21/21/26 24/24/26 1/1/26
