# Blender 3.5.1
# www.blender.org
mtllib speed_panel.mtl
o Speed_Panel
v 4.100000 -0.000000 4.100000
v 4.100000 -0.000000 -4.100000
v -4.100000 0.000000 4.100000
v -4.100000 0.000000 -4.100000
v 3.800000 0.125000 3.800000
v 4.002500 0.096875 4.002500
v 3.800000 0.125000 -3.800000
v 4.002500 0.096875 -4.002500
v -3.800000 0.125000 3.800000
v -4.002500 0.096875 4.002500
v -3.800000 0.125000 -3.800000
v -4.002500 0.096875 -4.002500
vn -0.3162 0.8944 0.3162
vn -0.6893 -0.2231 0.6893
vn 0.6893 -0.2231 0.6893
vn 0.3162 0.8944 0.3162
vn -0.3162 0.8944 -0.3162
vn -0.6893 -0.2231 -0.6893
vn 0.3162 0.8944 -0.3162
vn 0.6893 -0.2231 -0.6893
vn 0.0518 0.9973 -0.0518
vn 0.0518 0.9973 0.0518
vn -0.0518 0.9973 -0.0518
vn -0.0518 0.9973 0.0518
vt 0.476656 0.526887
vt 0.969194 0.479745
vt 0.476656 0.977739
vt 0.969194 0.033370
vt 0.025806 0.526986
vt 0.522819 0.479745
vt 0.025806 0.977839
vt 0.522819 0.033370
vt 0.457123 0.546026
vt 0.971020 0.563756
vt 0.468616 0.534708
vt 0.457521 0.958209
vt 0.971020 0.977470
vt 0.468837 0.969700
vt 0.044942 0.546516
vt 0.557306 0.563756
vt 0.033625 0.535025
vt 0.045340 0.958699
vt 0.557306 0.977470
vt 0.033847 0.970018
s 1
usemtl Speed_Panel_Material
f 10/17/1 3/5/2 1/1/3 6/11/4
f 12/20/5 4/7/6 3/5/2 10/17/1
f 8/14/7 2/3/8 4/7/6 12/20/5
f 6/11/4 1/1/3 2/3/8 8/14/7
f 4/8/6 2/4/8 1/2/3 3/6/2
f 7/12/9 5/9/10 6/11/4 8/14/7
f 11/18/11 7/12/9 8/14/7 12/20/5
f 9/15/12 11/18/11 12/20/5 10/17/1
f 5/9/10 9/15/12 10/17/1 6/11/4
f 7/13/9 11/19/11 9/16/12 5/10/10
