# Blender 3.3.0
# www.blender.org
mtllib ball.mtl
o Ball
v 0.000000 0.382683 -0.923880
v 0.000000 0.000000 -1.000000
v 0.000000 -0.382683 -0.923880
v 0.000000 -0.923880 -0.382683
v 0.146447 0.923880 -0.353553
v 0.270598 0.707107 -0.653281
v 0.353553 0.382683 -0.853553
v 0.382683 0.000000 -0.923880
v 0.353553 -0.382683 -0.853553
v 0.270598 -0.707107 -0.653281
v 0.146447 -0.923880 -0.353553
v 0.270598 0.923880 -0.270598
v 0.500000 0.707107 -0.500000
v 0.653282 0.382683 -0.653281
v 0.707107 0.000000 -0.707107
v 0.653282 -0.382683 -0.653281
v 0.500000 -0.707107 -0.500000
v 0.270598 -0.923880 -0.270598
v 0.353553 0.923880 -0.146447
v 0.653281 0.707107 -0.270598
v 0.853553 0.382683 -0.353553
v 0.923880 0.000000 -0.382683
v 0.853553 -0.382683 -0.353553
v 0.653281 -0.707107 -0.270598
v 0.353553 -0.923880 -0.146447
v 0.382683 0.923880 0.000000
v 0.707107 0.707107 0.000000
v 0.923880 0.382683 0.000000
v 1.000000 0.000000 0.000000
v 0.923880 -0.382683 0.000000
v 0.707107 -0.707107 0.000000
v 0.382683 -0.923880 0.000000
v 0.353553 0.923880 0.146447
v 0.653281 0.707107 0.270598
v 0.853553 0.382683 0.353554
v 0.923879 0.000000 0.382684
v 0.853553 -0.382683 0.353554
v 0.653281 -0.707107 0.270598
v 0.353553 -0.923880 0.146447
v 0.270598 0.923880 0.270598
v 0.500000 0.707107 0.500000
v 0.653281 0.382683 0.653282
v 0.707107 0.000000 0.707107
v 0.653281 -0.382683 0.653282
v 0.500000 -0.707107 0.500000
v 0.270598 -0.923880 0.270598
v 0.146447 0.923880 0.353553
v 0.270598 0.707107 0.653281
v 0.353553 0.382683 0.853553
v 0.382683 0.000000 0.923880
v 0.353553 -0.382683 0.853553
v 0.270598 -0.707107 0.653281
v 0.146447 -0.923880 0.353553
v -0.000000 0.923880 0.382683
v -0.000000 0.707107 0.707107
v -0.000000 0.382683 0.923879
v -0.000000 0.000000 1.000000
v -0.000000 -0.382683 0.923879
v -0.000000 -0.707107 0.707107
v -0.000000 -0.923880 0.382683
v 0.000000 -1.000000 0.000000
v 0.000000 1.000000 0.000000
v -0.146447 0.923880 0.353553
v -0.270598 0.707107 0.653281
v -0.353554 0.382683 0.853553
v -0.382684 0.000000 0.923879
v -0.353554 -0.382683 0.853553
v -0.270598 -0.707107 0.653281
v -0.146447 -0.923880 0.353553
v -0.270598 0.923880 0.270598
v -0.500000 0.707107 0.500000
v -0.653282 0.382683 0.653281
v -0.707107 0.000000 0.707106
v -0.653282 -0.382683 0.653281
v -0.500000 -0.707107 0.500000
v -0.270598 -0.923880 0.270598
v -0.353553 0.923880 0.146446
v -0.653281 0.707107 0.270598
v -0.853553 0.382683 0.353553
v -0.923880 0.000000 0.382683
v -0.853553 -0.382683 0.353553
v -0.653281 -0.707107 0.270598
v -0.353553 -0.923880 0.146446
v -0.382683 0.923880 -0.000000
v -0.707107 0.707107 -0.000000
v -0.923879 0.382683 -0.000000
v -1.000000 0.000000 -0.000001
v -0.923879 -0.382683 -0.000000
v -0.707107 -0.707107 -0.000000
v -0.382683 -0.923880 -0.000000
v -0.353553 0.923880 -0.146447
v -0.653281 0.707107 -0.270598
v -0.853553 0.382683 -0.353554
v -0.923879 0.000000 -0.382684
v -0.853553 -0.382683 -0.353554
v -0.653281 -0.707107 -0.270598
v -0.353553 -0.923880 -0.146447
v -0.270598 0.923880 -0.270598
v -0.500000 0.707107 -0.500000
v -0.653281 0.382683 -0.653282
v -0.707106 0.000000 -0.707107
v -0.653281 -0.382683 -0.653282
v -0.500000 -0.707107 -0.500000
v -0.270598 -0.923880 -0.270598
v -0.146446 0.923880 -0.353554
v -0.270598 0.707107 -0.653281
v -0.353553 0.382683 -0.853553
v -0.382683 0.000000 -0.923880
v -0.353553 -0.382683 -0.853553
v -0.270598 -0.707107 -0.653281
v -0.146446 -0.923880 -0.353554
v 0.000000 0.923880 -0.382683
v 0.000000 0.707107 -0.707107
v 0.000000 -0.707107 -0.707107
vn -0.0000 -0.6952 -0.7189
vn -0.0000 -0.3744 -0.9273
vn 0.3549 -0.3744 -0.8567
vn 0.2751 -0.6952 -0.6641
vn -0.0000 -0.0000 -1.0000
vn -0.0000 0.3744 -0.9273
vn 0.3549 0.3744 -0.8567
vn 0.3827 -0.0000 -0.9239
vn -0.0000 0.6952 -0.7189
vn -0.0000 0.9177 -0.3974
vn 0.1543 0.9151 -0.3726
vn 0.2751 0.6952 -0.6641
vn -0.0000 -0.9177 -0.3974
vn 0.1543 -0.9151 -0.3726
vn 0.2810 -0.9177 -0.2810
vn -0.0000 -1.0000 -0.0000
vn -0.0000 1.0000 -0.0000
vn 0.3974 0.9177 -0.0000
vn 0.3726 0.9151 -0.1543
vn 0.2810 0.9177 -0.2810
vn 0.5083 -0.6952 -0.5083
vn 0.7071 -0.0000 -0.7071
vn 0.6557 -0.3744 -0.6557
vn 0.5083 0.6952 -0.5083
vn 0.6557 0.3744 -0.6557
vn 0.6641 0.6952 -0.2751
vn 0.8567 0.3744 -0.3549
vn 0.3726 -0.9151 -0.1543
vn 0.3974 -0.9177 -0.0000
vn 0.2810 0.9177 0.2810
vn 0.3726 0.9151 0.1543
vn 0.8567 -0.3744 -0.3549
vn 0.6641 -0.6952 -0.2751
vn 0.9239 -0.0000 -0.3827
vn 0.9273 -0.3744 -0.0000
vn 0.7189 -0.6952 -0.0000
vn 0.9273 0.3744 -0.0000
vn 1.0000 -0.0000 -0.0000
vn 0.7189 0.6952 -0.0000
vn 0.6641 0.6952 0.2751
vn 0.6641 -0.6952 0.2751
vn 0.3726 -0.9151 0.1543
vn 0.9239 -0.0000 0.3827
vn 0.8567 -0.3744 0.3549
vn 0.8567 0.3744 0.3549
vn 0.2810 -0.9177 0.2810
vn -0.0000 0.9177 0.3974
vn 0.1543 0.9151 0.3726
vn 0.5083 -0.6952 0.5083
vn 0.7071 -0.0000 0.7071
vn 0.6557 -0.3744 0.6557
vn 0.5083 0.6952 0.5083
vn 0.6557 0.3744 0.6557
vn 0.1543 -0.9151 0.3726
vn -0.0000 -0.9177 0.3974
vn -0.1543 -0.9151 0.3726
vn -0.2810 -0.9177 0.2810
vn 0.3549 -0.3744 0.8567
vn 0.2751 -0.6952 0.6641
vn 0.3549 0.3744 0.8567
vn 0.3827 -0.0000 0.9239
vn 0.2751 0.6952 0.6641
vn -0.0000 -0.3744 0.9273
vn -0.0000 -0.6952 0.7189
vn -0.0000 0.3744 0.9273
vn -0.0000 -0.0000 1.0000
vn -0.0000 0.6952 0.7189
vn -0.2751 -0.6952 0.6641
vn -0.3827 -0.0000 0.9239
vn -0.3549 -0.3744 0.8567
vn -0.2751 0.6952 0.6641
vn -0.3549 0.3744 0.8567
vn -0.3974 0.9177 -0.0000
vn -0.3726 0.9151 0.1543
vn -0.2810 0.9177 0.2810
vn -0.1543 0.9151 0.3726
vn -0.7071 -0.0000 0.7071
vn -0.6557 -0.3744 0.6557
vn -0.5083 0.6952 0.5083
vn -0.6557 0.3744 0.6557
vn -0.5083 -0.6952 0.5083
vn -0.2810 0.9177 -0.2810
vn -0.3726 0.9151 -0.1543
vn -0.8567 -0.3744 0.3549
vn -0.6641 -0.6952 0.2751
vn -0.8567 0.3744 0.3549
vn -0.9239 -0.0000 0.3827
vn -0.6641 0.6952 0.2751
vn -0.3726 -0.9151 0.1543
vn -0.3974 -0.9177 -0.0000
vn -0.9273 0.3744 -0.0000
vn -1.0000 -0.0000 -0.0000
vn -0.7189 0.6952 -0.0000
vn -0.7189 -0.6952 -0.0000
vn -0.9273 -0.3744 -0.0000
vn -0.6641 -0.6952 -0.2751
vn -0.3726 -0.9151 -0.1543
vn -0.9239 -0.0000 -0.3827
vn -0.8567 -0.3744 -0.3549
vn -0.6641 0.6952 -0.2751
vn -0.8567 0.3744 -0.3549
vn -0.2810 -0.9177 -0.2810
vn -0.1543 0.9151 -0.3726
vn -0.5083 0.6952 -0.5083
vn -0.6557 0.3744 -0.6557
vn -0.6557 -0.3744 -0.6557
vn -0.5083 -0.6952 -0.5083
vn -0.7071 -0.0000 -0.7071
vn -0.3549 -0.3744 -0.8567
vn -0.2751 -0.6952 -0.6641
vn -0.3549 0.3744 -0.8567
vn -0.3827 -0.0000 -0.9239
vn -0.2751 0.6952 -0.6641
vn -0.1543 -0.9151 -0.3726
vt 0.710304 0.343418
vt 0.710000 0.291987
vt 0.709696 0.240557
vt 0.708953 0.117337
vt 0.683445 0.467866
vt 0.669028 0.402991
vt 0.661132 0.346399
vt 0.658417 0.293178
vt 0.660071 0.239555
vt 0.666621 0.181673
vt 0.681417 0.115070
vt 0.658081 0.479694
vt 0.625765 0.414907
vt 0.608527 0.354362
vt 0.602311 0.294829
vt 0.606342 0.234242
vt 0.622249 0.170694
vt 0.655379 0.101803
vt 0.632239 0.497524
vt 0.580566 0.437496
vt 0.548192 0.370145
vt 0.535357 0.297696
vt 0.542814 0.222631
vt 0.572939 0.148407
vt 0.628474 0.081931
vt 0.613959 0.525819
vt 0.391347 0.954290
vt 0.533288 0.477347
vt 0.481818 0.896381
vt 0.473121 0.400548
vt 0.539561 0.805124
vt 0.445950 0.302935
vt 0.554050 0.701039
vt 0.460439 0.198850
vt 0.526880 0.603426
vt 0.518182 0.107593
vt 0.466712 0.526627
vt 0.608653 0.049684
vt 0.386041 0.478155
vt 0.371526 0.922043
vt 0.427061 0.855567
vt 0.457187 0.781344
vt 0.464643 0.706278
vt 0.451808 0.633829
vt 0.419434 0.566478
vt 0.367761 0.506450
vt 0.344621 0.902171
vt 0.377751 0.833280
vt 0.393658 0.769732
vt 0.397690 0.709145
vt 0.391473 0.649612
vt 0.374236 0.589067
vt 0.341919 0.524280
vt 0.318584 0.888905
vt 0.333379 0.822301
vt 0.339929 0.764419
vt 0.341583 0.710796
vt 0.338868 0.657575
vt 0.330972 0.600983
vt 0.316555 0.536108
vt 0.291047 0.886637
vt 0.290699 0.819165
vt 0.290304 0.763418
vt 0.290000 0.711987
vt 0.289696 0.660556
vt 0.289301 0.604809
vt 0.288953 0.537337
vt 0.291338 0.451131
vt 0.711338 0.031131
vt 0.708662 0.552843
vt 0.288662 0.972843
vt 0.263445 0.887866
vt 0.249028 0.822991
vt 0.241132 0.766399
vt 0.238417 0.713178
vt 0.240071 0.659555
vt 0.246621 0.601673
vt 0.261416 0.535070
vt 0.238081 0.899694
vt 0.205765 0.834907
vt 0.188527 0.774362
vt 0.182310 0.714829
vt 0.186342 0.654242
vt 0.202249 0.590694
vt 0.235379 0.521803
vt 0.212239 0.917524
vt 0.160566 0.857496
vt 0.128192 0.790145
vt 0.115357 0.717696
vt 0.122814 0.642630
vt 0.152939 0.568407
vt 0.208474 0.501931
vt 0.193959 0.945819
vt 0.811347 0.534290
vt 0.113288 0.897347
vt 0.901818 0.476381
vt 0.053120 0.820548
vt 0.959561 0.385124
vt 0.025950 0.722935
vt 0.974050 0.281039
vt 0.040439 0.618850
vt 0.946880 0.183426
vt 0.098182 0.527593
vt 0.886712 0.106627
vt 0.188653 0.469684
vt 0.806041 0.058156
vt 0.791526 0.502043
vt 0.847061 0.435567
vt 0.877187 0.361344
vt 0.884643 0.286278
vt 0.871808 0.213829
vt 0.839434 0.146478
vt 0.787761 0.086450
vt 0.764621 0.482171
vt 0.797751 0.413280
vt 0.813658 0.349732
vt 0.817690 0.289145
vt 0.811473 0.229613
vt 0.794236 0.169067
vt 0.761919 0.104280
vt 0.738584 0.468905
vt 0.753379 0.402301
vt 0.759929 0.344419
vt 0.761583 0.290796
vt 0.758868 0.237576
vt 0.750972 0.180983
vt 0.736555 0.116108
vt 0.711047 0.466637
vt 0.710699 0.399165
vt 0.709301 0.184809
s 1
usemtl Ball_Material_-_Star_-_Red
f 114/130/1 3/3/2 9/9/3 10/10/4
f 2/2/5 1/1/6 7/7/7 8/8/8
f 113/129/9 112/128/10 5/5/11 6/6/12
f 4/4/13 114/130/1 10/10/4 11/11/14
f 3/3/2 2/2/5 8/8/8 9/9/3
f 1/1/6 113/129/9 6/6/12 7/7/7
f 11/11/14 18/18/15 61/69/16 4/4/13
f 62/70/17 26/26/18 19/19/19 12/12/20
f 11/11/14 10/10/4 17/17/21 18/18/15
f 9/9/3 8/8/8 15/15/22 16/16/23
f 7/7/7 6/6/12 13/13/24 14/14/25
f 10/10/4 9/9/3 16/16/23 17/17/21
f 8/8/8 7/7/7 14/14/25 15/15/22
f 6/6/12 5/5/11 12/12/20 13/13/24
f 14/14/25 13/13/24 20/20/26 21/21/27
f 25/25/28 32/38/29 61/69/16 18/18/15
f 62/71/17 40/47/30 33/40/31 26/27/18
f 17/17/21 16/16/23 23/23/32 24/24/33
f 15/15/22 14/14/25 21/21/27 22/22/34
f 13/13/24 12/12/20 19/19/19 20/20/26
f 18/18/15 17/17/21 24/24/33 25/25/28
f 16/16/23 15/15/22 22/22/34 23/23/32
f 24/24/33 23/23/32 30/34/35 31/36/36
f 22/22/34 21/21/27 28/30/37 29/32/38
f 20/20/26 19/19/19 26/26/18 27/28/39
f 25/25/28 24/24/33 31/36/36 32/38/29
f 23/23/32 22/22/34 29/32/38 30/34/35
f 21/21/27 20/20/26 27/28/39 28/30/37
f 27/29/39 26/27/18 33/40/31 34/41/40
f 32/39/29 31/37/36 38/45/41 39/46/42
f 30/35/35 29/33/38 36/43/43 37/44/44
f 28/31/37 27/29/39 34/41/40 35/42/45
f 39/46/42 46/53/46 61/68/16 32/39/29
f 62/71/17 54/61/47 47/54/48 40/47/30
f 31/37/36 30/35/35 37/44/44 38/45/41
f 29/33/38 28/31/37 35/42/45 36/43/43
f 39/46/42 38/45/41 45/52/49 46/53/46
f 37/44/44 36/43/43 43/50/50 44/51/51
f 35/42/45 34/41/40 41/48/52 42/49/53
f 38/45/41 37/44/44 44/51/51 45/52/49
f 36/43/43 35/42/45 42/49/53 43/50/50
f 34/41/40 33/40/31 40/47/30 41/48/52
f 53/60/54 60/67/55 61/68/16 46/53/46
f 69/78/56 76/85/57 61/68/16 60/67/55
f 45/52/49 44/51/51 51/58/58 52/59/59
f 43/50/50 42/49/53 49/56/60 50/57/61
f 41/48/52 40/47/30 47/54/48 48/55/62
f 46/53/46 45/52/49 52/59/59 53/60/54
f 44/51/51 43/50/50 50/57/61 51/58/58
f 42/49/53 41/48/52 48/55/62 49/56/60
f 52/59/59 51/58/58 58/65/63 59/66/64
f 50/57/61 49/56/60 56/63/65 57/64/66
f 48/55/62 47/54/48 54/61/47 55/62/67
f 53/60/54 52/59/59 59/66/64 60/67/55
f 51/58/58 50/57/61 57/64/66 58/65/63
f 49/56/60 48/55/62 55/62/67 56/63/65
f 60/67/55 59/66/64 68/77/68 69/78/56
f 58/65/63 57/64/66 66/75/69 67/76/70
f 56/63/65 55/62/67 64/73/71 65/74/72
f 62/70/17 12/12/20 5/5/11 112/128/10
f 62/71/17 84/93/73 77/86/74 70/79/75
f 59/66/64 58/65/63 67/76/70 68/77/68
f 57/64/66 56/63/65 65/74/72 66/75/69
f 55/62/67 54/61/47 63/72/76 64/73/71
f 67/76/70 66/75/69 73/82/77 74/83/78
f 65/74/72 64/73/71 71/80/79 72/81/80
f 68/77/68 67/76/70 74/83/78 75/84/81
f 66/75/69 65/74/72 72/81/80 73/82/77
f 64/73/71 63/72/76 70/79/75 71/80/79
f 69/78/56 68/77/68 75/84/81 76/85/57
f 62/70/17 98/114/82 91/107/83 84/94/73
f 75/84/81 74/83/78 81/90/84 82/91/85
f 73/82/77 72/81/80 79/88/86 80/89/87
f 71/80/79 70/79/75 77/86/74 78/87/88
f 76/85/57 75/84/81 82/91/85 83/92/89
f 74/83/78 73/82/77 80/89/87 81/90/84
f 72/81/80 71/80/79 78/87/88 79/88/86
f 83/92/89 90/105/90 61/68/16 76/85/57
f 80/89/87 79/88/86 86/97/91 87/99/92
f 78/87/88 77/86/74 84/93/73 85/95/93
f 83/92/89 82/91/85 89/103/94 90/105/90
f 81/90/84 80/89/87 87/99/92 88/101/95
f 79/88/86 78/87/88 85/95/93 86/97/91
f 82/91/85 81/90/84 88/101/95 89/103/94
f 90/106/90 89/104/94 96/112/96 97/113/97
f 88/102/95 87/100/92 94/110/98 95/111/99
f 86/98/91 85/96/93 92/108/100 93/109/101
f 97/113/97 104/120/102 61/69/16 90/106/90
f 62/70/17 112/128/10 105/121/103 98/114/82
f 89/104/94 88/102/95 95/111/99 96/112/96
f 87/100/92 86/98/91 93/109/101 94/110/98
f 85/96/93 84/94/73 91/107/83 92/108/100
f 93/109/101 92/108/100 99/115/104 100/116/105
f 96/112/96 95/111/99 102/118/106 103/119/107
f 94/110/98 93/109/101 100/116/105 101/117/108
f 92/108/100 91/107/83 98/114/82 99/115/104
f 97/113/97 96/112/96 103/119/107 104/120/102
f 95/111/99 94/110/98 101/117/108 102/118/106
f 103/119/107 102/118/106 109/125/109 110/126/110
f 101/117/108 100/116/105 107/123/111 108/124/112
f 99/115/104 98/114/82 105/121/103 106/122/113
f 104/120/102 103/119/107 110/126/110 111/127/114
f 102/118/106 101/117/108 108/124/112 109/125/109
f 100/116/105 99/115/104 106/122/113 107/123/111
f 111/127/114 4/4/13 61/69/16 104/120/102
f 106/122/113 105/121/103 112/128/10 113/129/9
f 111/127/114 110/126/110 114/130/1 4/4/13
f 109/125/109 108/124/112 2/2/5 3/3/2
f 107/123/111 106/122/113 113/129/9 1/1/6
f 110/126/110 109/125/109 3/3/2 114/130/1
f 108/124/112 107/123/111 1/1/6 2/2/5
f 62/71/17 70/79/75 63/72/76 54/61/47
