# Blender 3.3.0
# www.blender.org
mtllib arrow.mtl
o Arrow
v 1.000000 0.025000 -1.000000
v 1.000000 -0.025000 -1.000000
v 0.020000 0.025000 1.000000
v 0.020000 -0.025000 1.000000
v -1.000000 0.025000 -1.000000
v -1.000000 -0.025000 -1.000000
v -0.020000 0.025000 1.000000
v -0.020000 -0.025000 1.000000
v 1.000000 0.000000 -1.000000
v -0.020000 0.000000 1.000000
v 0.020000 0.000000 1.000000
v -1.000000 0.000000 -1.000000
v -0.500000 -0.025000 0.000000
v 0.500000 0.025000 0.000000
v -0.500000 0.025000 0.000000
v 0.500000 -0.025000 0.000000
v 0.500000 0.000000 0.000000
v -0.500000 0.000000 0.000000
v 0.000000 -0.025000 -0.550000
v 0.000000 0.025000 1.000000
v 0.000000 -0.025000 1.000000
v 0.000000 0.025000 -0.550000
v 0.000000 0.000000 -0.550000
v 0.000000 0.000000 1.000000
v 0.000000 -0.025000 0.000000
v 0.000000 0.025000 0.000000
vn -0.0000 1.0000 -0.0000
vn -0.0000 -0.0000 1.0000
vn -0.8944 -0.0000 0.4472
vn -0.0000 -1.0000 -0.0000
vn 0.9015 -0.0000 0.4327
vn -0.4104 -0.0000 -0.9119
vn -0.9015 -0.0000 0.4327
vn 0.8944 -0.0000 0.4472
vn 0.4104 -0.0000 -0.9119
vt 0.625000 0.500000
vt 0.375000 0.500000
vt 0.625000 0.750000
vt 0.375000 0.750000
vt 0.875000 0.500000
vt 0.625000 0.250000
vt 0.125000 0.500000
vt 0.375000 0.250000
vt 0.875000 0.750000
vt 0.625000 1.000000
vt 0.625000 0.000000
vt 0.375000 1.000000
vt 0.375000 0.000000
vt 0.125000 0.750000
vt 0.500000 0.500000
vt 0.500000 1.000000
vt 0.500000 0.000000
vt 0.500000 0.750000
vt 0.500000 0.250000
vt 0.375000 0.125000
vt 0.125000 0.625000
vt 0.625000 0.625000
vt 0.625000 0.125000
vt 0.875000 0.625000
vt 0.375000 0.625000
vt 0.500000 0.625000
vt 0.500000 0.125000
vt 0.250000 0.500000
vt 0.375000 0.375000
vt 0.625000 0.875000
vt 0.750000 0.750000
vt 0.375000 0.875000
vt 0.250000 0.750000
vt 0.750000 0.500000
vt 0.625000 0.375000
vt 0.500000 0.375000
vt 0.500000 0.875000
vt 0.250000 0.625000
vt 0.750000 0.625000
s 0
usemtl Arrow_Material
f 26/39/1 15/24/1 7/9/1 20/31/1
f 24/37/2 20/30/2 7/10/2 10/16/2
f 18/27/3 15/23/3 5/6/3 12/19/3
f 25/38/4 16/25/4 4/4/4 21/33/4
f 17/26/5 14/22/5 3/3/5 11/18/5
f 23/36/6 22/35/6 1/1/6 9/15/6
f 19/29/6 23/36/6 9/15/6 2/2/6
f 16/25/5 17/26/5 11/18/5 4/4/5
f 13/20/3 18/27/3 12/19/3 6/8/3
f 21/32/2 24/37/2 10/16/2 8/12/2
f 8/13/7 10/17/7 18/27/7 13/20/7
f 2/2/8 9/15/8 17/26/8 16/25/8
f 9/15/8 1/1/8 14/22/8 17/26/8
f 19/28/4 2/2/4 16/25/4 25/38/4
f 10/17/7 7/11/7 15/23/7 18/27/7
f 22/34/1 5/5/1 15/24/1 26/39/1
f 1/1/1 22/34/1 26/39/1 14/22/1
f 6/7/4 19/28/4 25/38/4 13/21/4
f 4/4/2 11/18/2 24/37/2 21/32/2
f 6/8/9 12/19/9 23/36/9 19/29/9
f 12/19/9 5/6/9 22/35/9 23/36/9
f 13/21/4 25/38/4 21/33/4 8/14/4
f 11/18/2 3/3/2 20/30/2 24/37/2
f 14/22/1 26/39/1 20/31/1 3/3/1
