# Blender 3.5.1
# www.blender.org
mtllib launcher.mtl
o Launcher
v 2.101010 -0.125000 -5.072287
v 2.101010 0.125000 -5.072287
v 3.882161 -0.125000 -3.882161
v 3.882161 0.125000 -3.882161
v 5.072287 -0.125000 -2.101010
v 5.072287 0.125000 -2.101010
v 5.490204 -0.125000 0.000000
v 5.490204 0.125000 0.000000
v 5.072287 -0.125000 2.101010
v 5.072287 0.125000 2.101010
v 3.882161 -0.125000 3.882161
v 3.882161 0.125000 3.882161
v 2.101010 -0.125000 5.072287
v 2.101010 0.125000 5.072287
v 0.000000 -0.125000 5.490204
v 0.000000 0.125000 5.490204
v -5.490204 -0.125000 0.000000
v -5.490204 0.125000 0.000000
v -5.072287 -0.125000 -2.101010
v -5.072287 0.125000 -2.101010
v 0.000000 -0.125000 -6.000000
v 2.296101 -0.125000 -5.543277
v 2.296101 0.125000 -5.543277
v 0.000000 0.125000 -6.000000
v 4.242640 -0.125000 -4.242640
v 4.242640 0.125000 -4.242640
v 5.543277 -0.125000 -2.296101
v 5.543277 0.125000 -2.296101
v 6.000000 -0.125000 0.000000
v 6.000000 0.125000 0.000000
v 5.543277 -0.125000 2.296101
v 5.543277 0.125000 2.296101
v 4.242640 -0.125000 4.242640
v 4.242640 0.125000 4.242640
v 2.296101 -0.125000 5.543277
v 2.296101 0.125000 5.543277
v 0.000000 -0.125000 6.000000
v 0.000000 0.125000 6.000000
v -2.296101 -0.125000 5.543277
v -2.296101 0.125000 5.543277
v -4.242640 -0.125000 4.242640
v -4.242640 0.125000 4.242640
v -5.543277 -0.125000 2.296101
v -5.543277 0.125000 2.296101
v -6.000000 -0.125000 0.000000
v -6.000000 0.125000 0.000000
v -5.543277 -0.125000 -2.296101
v -5.543277 0.125000 -2.296101
v -4.242640 -0.125000 -4.242640
v -4.242640 0.125000 -4.242640
v -2.296101 -0.125000 -5.543277
v -2.296101 0.125000 -5.543277
v -0.000007 -0.125000 -5.490204
v -0.000007 0.125000 -5.490204
v -2.101017 -0.125000 -5.072287
v -2.101017 0.125000 -5.072287
v -3.882168 -0.125000 -3.882161
v -3.882168 0.125000 -3.882161
v -5.072294 -0.125000 2.101010
v -5.072294 0.125000 2.101010
v -3.882168 -0.125000 3.882161
v -3.882168 0.125000 3.882161
v -2.101017 -0.125000 5.072288
v -2.101017 0.125000 5.072288
v 2.066490 1.125000 -4.988949
v -0.000000 1.125000 -5.400000
v 3.818376 1.125000 -3.818376
v 4.988949 1.125000 -2.066490
v 5.400000 1.125000 0.000000
v 4.988949 1.125000 2.066490
v 3.818376 1.125000 3.818376
v 2.066490 1.125000 4.988949
v -0.000000 1.125000 5.400000
v -2.066491 1.125000 4.988949
v -3.818377 1.125000 3.818376
v -4.988949 1.125000 2.066490
v -5.400000 1.125000 0.000000
v -4.988949 1.125000 -2.066490
v -3.818377 1.125000 -3.818376
v -2.066491 1.125000 -4.988949
v 3.493944 1.125000 -3.493944
v 1.890909 1.125000 -4.565058
v 4.565058 1.125000 -1.890909
v 4.941184 1.125000 0.000000
v 4.565058 1.125000 1.890909
v 3.493944 1.125000 3.493944
v 1.890909 1.125000 4.565058
v -0.000000 1.125000 4.941184
v -4.565058 1.125000 -1.890909
v -4.941184 1.125000 0.000000
v -1.890916 1.125000 -4.565058
v -0.000006 1.125000 -4.941184
v -3.493951 1.125000 -3.493944
v -3.493951 1.125000 3.493945
v -4.565064 1.125000 1.890909
v -1.890916 1.125000 4.565059
v 1.949436 1.125000 -4.706355
v 2.007963 1.125000 -4.847652
v 3.602088 1.125000 -3.602088
v 3.710232 1.125000 -3.710232
v 4.706355 1.125000 -1.949436
v 4.847652 1.125000 -2.007963
v 5.094122 1.125000 0.000000
v 5.247061 1.125000 0.000000
v 4.706355 1.125000 1.949436
v 4.847652 1.125000 2.007963
v 3.602088 1.125000 3.602088
v 3.710232 1.125000 3.710232
v 1.949436 1.125000 4.706355
v 2.007963 1.125000 4.847652
v -0.000000 1.125000 5.094122
v -0.000000 1.125000 5.247061
v -5.094123 1.125000 0.000000
v -5.247062 1.125000 0.000000
v -4.706355 1.125000 -1.949436
v -4.847652 1.125000 -2.007963
v -0.000002 1.125000 -5.247061
v -0.000004 1.125000 -5.094122
v -1.949441 1.125000 4.706356
v -2.007966 1.125000 4.847652
v -3.602093 1.125000 3.602088
v -3.710235 1.125000 3.710232
v -4.706359 1.125000 1.949436
v -4.847654 1.125000 2.007963
v -3.602093 1.125000 -3.602088
v -3.710235 1.125000 -3.710232
v -1.949441 1.125000 -4.706355
v -2.007966 1.125000 -4.847651
v 1.949436 1.325000 -4.706355
v 2.007963 1.325000 -4.847652
v 3.602088 1.325000 -3.602088
v 3.710232 1.325000 -3.710232
v 4.706355 1.325000 -1.949436
v 4.847652 1.325000 -2.007963
v 5.094122 1.325000 0.000000
v 5.247061 1.325000 0.000000
v 4.706355 1.325000 1.949436
v 4.847652 1.325000 2.007963
v 3.602088 1.325000 3.602088
v 3.710232 1.325000 3.710232
v 1.949436 1.325000 4.706355
v 2.007963 1.325000 4.847652
v -0.000000 1.325000 5.094122
v -0.000000 1.325000 5.247061
v -5.094123 1.325000 0.000000
v -5.247062 1.325000 0.000000
v -4.706355 1.325000 -1.949436
v -4.847652 1.325000 -2.007963
v -0.000002 1.325000 -5.247061
v -0.000004 1.325000 -5.094122
v -1.949441 1.325000 4.706356
v -2.007966 1.325000 4.847652
v -3.602093 1.325000 3.602088
v -3.710235 1.325000 3.710232
v -4.706359 1.325000 1.949436
v -4.847654 1.325000 2.007963
v -3.602093 1.325000 -3.602088
v -3.710235 1.325000 -3.710232
v -1.949441 1.325000 -4.706355
v -2.007966 1.325000 -4.847651
vn 0.1951 -0.0000 -0.9808
vn 0.5556 -0.0000 -0.8315
vn 0.8315 -0.0000 -0.5556
vn 0.9808 -0.0000 -0.1951
vn 0.9808 -0.0000 0.1951
vn 0.8315 -0.0000 0.5556
vn 0.5556 -0.0000 0.8315
vn 0.1951 -0.0000 0.9808
vn -0.1951 -0.0000 0.9808
vn -0.5556 -0.0000 0.8315
vn -0.8315 -0.0000 0.5556
vn -0.9808 -0.0000 0.1951
vn -0.9808 -0.0000 -0.1951
vn -0.8315 -0.0000 -0.5556
vn -0.5556 -0.0000 -0.8315
vn -0.1951 -0.0000 -0.9808
vn -0.0000 -1.0000 -0.0000
vn 0.4892 -0.4741 -0.7321
vn 0.4788 0.5072 -0.7166
vn -0.4788 0.5072 -0.7166
vn 0.8636 -0.4741 -0.1718
vn 0.7166 0.5072 0.4788
vn -0.7321 -0.4741 -0.4892
vn 0.7321 -0.4741 -0.4892
vn -0.4788 0.5072 0.7166
vn 0.1718 -0.4741 -0.8635
vn -0.8635 -0.4741 -0.1718
vn 0.4892 -0.4741 0.7321
vn 0.1681 0.5072 -0.8453
vn -0.7166 0.5072 -0.4788
vn 0.8453 0.5072 0.1681
vn -0.1718 -0.4741 0.8635
vn -0.8635 -0.4741 0.1718
vn -0.0000 1.0000 -0.0000
vn -0.7166 0.5072 0.4788
vn -0.4892 -0.4741 -0.7321
vn 0.7321 -0.4741 0.4892
vn 0.4788 0.5072 0.7166
vn -0.1681 0.5072 -0.8453
vn -0.1718 -0.4741 -0.8635
vn 0.7166 0.5072 -0.4788
vn -0.8453 0.5072 0.1681
vn -0.4892 -0.4741 0.7321
vn 0.8635 -0.4741 0.1718
vn 0.1681 0.5072 0.8453
vn -0.7321 -0.4741 0.4892
vn 0.8453 0.5072 -0.1681
vn -0.8453 0.5072 -0.1681
vn 0.1718 -0.4741 0.8635
vn -0.1681 0.5072 0.8453
vt 0.384277 0.555111
vt 0.377795 0.580022
vt 0.974860 0.794215
vt 0.489758 0.556891
vt 0.494149 0.582061
vt 0.940314 0.876775
vt 0.585547 0.518102
vt 0.599225 0.539120
vt 0.876539 0.939902
vt 0.657920 0.445853
vt 0.793371 0.973881
vt 0.678471 0.459815
vt 0.696730 0.351793
vt 0.703555 0.973549
vt 0.720954 0.356793
vt 0.696704 0.250264
vt 0.720954 0.245669
vt 0.620811 0.938992
vt 0.658131 0.156495
vt 0.678771 0.143026
vt 0.557799 0.875517
vt 0.586900 0.084896
vt 0.524235 0.792913
vt 0.600671 0.064430
vt 0.236461 0.152730
vt 0.217044 0.140063
vt 0.707588 0.530760
vt 0.200639 0.240338
vt 0.178162 0.235477
vt 0.795190 0.530140
vt 0.305190 0.488799
vt 0.390425 0.530539
vt 0.395559 0.510673
vt 0.317750 0.472898
vt 0.485726 0.534072
vt 0.482333 0.513888
vt 0.573050 0.499099
vt 0.562062 0.482133
vt 0.639176 0.433289
vt 0.622560 0.422007
vt 0.674674 0.347399
vt 0.655050 0.343380
vt 0.674668 0.254601
vt 0.655016 0.258361
vt 0.639438 0.168877
vt 0.622734 0.179796
vt 0.574419 0.103360
vt 0.563202 0.119714
vt 0.489918 0.067773
vt 0.485845 0.087032
vt 0.399115 0.067521
vt 0.402726 0.086637
vt 0.316318 0.101886
vt 0.326852 0.117908
vt 0.253980 0.164500
vt 0.269558 0.175152
vt 0.219427 0.244549
vt 0.237915 0.248763
vt 0.216532 0.332515
vt 0.235585 0.329834
vt 0.245344 0.418275
vt 0.262591 0.408630
vt 0.291087 0.506857
vt 0.275546 0.526373
vt 0.974860 0.705074
vt 0.226114 0.429159
vt 0.205014 0.441076
vt 0.940423 0.623328
vt 0.195360 0.335535
vt 0.172140 0.338829
vt 0.877004 0.561931
vt 0.304309 0.083959
vt 0.625178 0.562203
vt 0.290881 0.064441
vt 0.394874 0.046024
vt 0.560861 0.622900
vt 0.389942 0.022472
vt 0.494342 0.046054
vt 0.525342 0.704045
vt 0.498947 0.022140
vt 0.409738 0.444089
vt 0.397294 0.661869
vt 0.427937 0.735909
vt 0.357350 0.418041
vt 0.340649 0.605068
vt 0.468455 0.447079
vt 0.266537 0.574226
vt 0.523209 0.426492
vt 0.186165 0.574162
vt 0.565322 0.385999
vt 0.588378 0.332151
vt 0.111739 0.605131
vt 0.054709 0.662838
vt 0.588944 0.273293
vt 0.024235 0.739103
vt 0.567423 0.218402
vt 0.026302 0.822890
vt 0.526934 0.176008
vt 0.062222 0.897737
vt 0.473821 0.152326
vt 0.121759 0.950662
vt 0.416354 0.150728
vt 0.193764 0.976283
vt 0.363580 0.170623
vt 0.269651 0.974991
vt 0.323263 0.209000
vt 0.341504 0.945076
vt 0.301396 0.260340
vt 0.300742 0.317857
vt 0.397441 0.889346
vt 0.427937 0.815843
vt 0.319938 0.373510
vt 0.876220 0.835734
vt 0.315797 0.642648
vt 0.900221 0.781028
vt 0.360000 0.687094
vt 0.832904 0.877307
vt 0.257974 0.618488
vt 0.776874 0.899332
vt 0.195309 0.618385
vt 0.716683 0.898427
vt 0.137388 0.642523
vt 0.661520 0.874757
vt 0.093230 0.687484
vt 0.619814 0.832002
vt 0.070043 0.746729
vt 0.597942 0.776814
vt 0.072196 0.811563
vt 0.783749 0.604039
vt 0.316627 0.908731
vt 0.723353 0.605058
vt 0.260239 0.932788
vt 0.879626 0.667051
vt 0.383959 0.807445
vt 0.901291 0.721663
vt 0.383926 0.744984
vt 0.838354 0.625670
vt 0.360255 0.864921
vt 0.623286 0.664333
vt 0.144226 0.912952
vt 0.666742 0.624786
vt 0.200384 0.934433
vt 0.599224 0.717807
vt 0.098774 0.870330
vt 0.364282 0.684270
vt 0.392564 0.664974
vt 0.318679 0.638403
vt 0.337460 0.609749
vt 0.259009 0.613462
vt 0.265383 0.579777
vt 0.194327 0.613343
vt 0.187237 0.579743
vt 0.134519 0.638242
vt 0.114897 0.609888
vt 0.088882 0.684645
vt 0.059512 0.666024
vt 0.064851 0.745820
vt 0.029998 0.740167
vt 0.066884 0.812800
vt 0.032199 0.821480
vt 0.261284 0.937626
vt 0.268566 0.969680
vt 0.319433 0.912907
vt 0.338456 0.940459
vt 0.422388 0.736970
vt 0.388952 0.744006
vt 0.094560 0.873365
vt 0.066799 0.894272
vt 0.141582 0.917202
vt 0.124552 0.945919
vt 0.199584 0.939124
vt 0.194611 0.971144
vt 0.364465 0.867748
vt 0.392812 0.886202
vt 0.388958 0.808455
vt 0.422423 0.814705
vt 0.375688 0.676422
vt 0.380224 0.673477
vt 0.326227 0.626789
vt 0.329297 0.622331
vt 0.261532 0.599836
vt 0.262661 0.594539
vt 0.191406 0.599777
vt 0.190408 0.594445
vt 0.126541 0.626824
vt 0.123544 0.622275
vt 0.076984 0.677189
vt 0.072413 0.674140
vt 0.050773 0.743614
vt 0.045286 0.742590
vt 0.053031 0.816278
vt 0.047258 0.817639
vt 0.264306 0.950592
vt 0.265346 0.955688
vt 0.327187 0.924012
vt 0.330097 0.928437
vt 0.407766 0.740114
vt 0.402458 0.741105
vt 0.083300 0.881777
vt 0.078907 0.885062
vt 0.134645 0.928795
vt 0.131940 0.933323
vt 0.197563 0.952234
vt 0.196760 0.957018
vt 0.375959 0.875152
vt 0.380373 0.878171
vt 0.402498 0.810922
vt 0.407762 0.812030
s 0
usemtl Launcher_Material
f 21/31/1 24/34/1 23/33/1 22/32/1
f 22/32/2 23/33/2 26/36/2 25/35/2
f 25/35/3 26/36/3 28/38/3 27/37/3
f 27/37/4 28/38/4 30/40/4 29/39/4
f 29/39/5 30/40/5 32/42/5 31/41/5
f 31/41/6 32/42/6 34/44/6 33/43/6
f 33/43/7 34/44/7 36/46/7 35/45/7
f 35/45/8 36/46/8 38/48/8 37/47/8
f 37/47/9 38/48/9 40/50/9 39/49/9
f 39/49/10 40/50/10 42/52/10 41/51/10
f 41/51/11 42/52/11 44/54/11 43/53/11
f 43/53/12 44/54/12 46/56/12 45/55/12
f 45/55/13 46/56/13 48/58/13 47/57/13
f 47/57/14 48/58/14 50/60/14 49/59/14
f 1/1/10 3/4/10 4/5/10 2/2/10
f 49/59/15 50/60/15 52/62/15 51/61/15
f 51/61/16 52/62/16 24/34/16 21/31/16
f 53/63/9 1/1/9 2/2/9 54/64/9
f 1/1/17 53/63/17 21/31/17 22/32/17
f 64/79/18 62/76/18 94/139/18 96/143/18
f 3/4/17 1/1/17 22/32/17 25/35/17
f 26/36/19 23/33/19 65/81/19 67/86/19
f 5/7/17 3/4/17 25/35/17 27/37/17
f 52/62/20 50/60/20 79/109/20 80/112/20
f 7/10/17 5/7/17 27/37/17 29/39/17
f 60/73/21 18/27/21 90/131/21 95/141/21
f 9/13/17 7/10/17 29/39/17 31/41/17
f 34/44/22 32/42/22 70/91/22 71/94/22
f 11/16/17 9/13/17 31/41/17 33/43/17
f 10/14/23 12/18/23 86/123/23 85/121/23
f 13/19/17 11/16/17 33/43/17 35/45/17
f 62/76/24 60/73/24 95/141/24 94/139/24
f 15/22/17 13/19/17 35/45/17 37/47/17
f 42/52/25 40/50/25 74/100/25 75/102/25
f 63/78/17 15/22/17 37/47/17 39/49/17
f 16/23/26 64/79/26 96/143/26 88/127/26
f 61/75/17 63/78/17 39/49/17 41/51/17
f 8/11/27 10/14/27 85/121/27 84/119/27
f 59/72/17 61/75/17 41/51/17 43/53/17
f 58/71/28 56/68/28 91/133/28 93/137/28
f 17/25/17 59/72/17 43/53/17 45/55/17
f 23/33/29 24/34/29 66/84/29 65/81/29
f 19/28/17 17/25/17 45/55/17 47/57/17
f 50/60/30 48/58/30 78/108/30 79/109/30
f 57/69/17 19/28/17 47/57/17 49/59/17
f 32/42/31 30/40/31 69/90/31 70/91/31
f 55/66/17 57/69/17 49/59/17 51/61/17
f 54/65/32 2/3/32 82/115/32 92/135/32
f 53/63/17 55/66/17 51/61/17 21/31/17
f 6/9/33 8/11/33 84/119/33 83/117/33
f 3/4/11 5/7/11 6/8/11 4/5/11
f 5/7/12 7/10/12 8/12/12 6/8/12
f 7/10/13 9/13/13 10/15/13 8/12/13
f 9/13/14 11/16/14 12/17/14 10/15/14
f 11/16/15 13/19/15 14/20/15 12/17/15
f 13/19/16 15/22/16 16/24/16 14/20/16
f 55/66/7 56/67/7 58/70/7 57/69/7
f 53/63/8 54/64/8 56/67/8 55/66/8
f 57/69/6 58/70/6 20/29/6 19/28/6
f 19/28/5 20/29/5 18/26/5 17/25/5
f 17/25/4 18/26/4 60/74/4 59/72/4
f 59/72/3 60/74/3 62/77/3 61/75/3
f 61/75/2 62/77/2 64/80/2 63/78/2
f 117/165/34 98/146/34 65/82/34 66/83/34
f 98/146/34 100/148/34 67/85/34 65/82/34
f 100/148/34 102/150/34 68/87/34 67/85/34
f 102/150/34 104/152/34 69/89/34 68/87/34
f 104/152/34 106/154/34 70/92/34 69/89/34
f 106/154/34 108/156/34 71/93/34 70/92/34
f 108/156/34 110/158/34 72/95/34 71/93/34
f 110/158/34 112/160/34 73/97/34 72/95/34
f 112/160/34 120/168/34 74/99/34 73/97/34
f 120/168/34 122/170/34 75/101/34 74/99/34
f 122/170/34 124/172/34 76/103/34 75/101/34
f 124/172/34 114/162/34 77/105/34 76/103/34
f 114/162/34 116/164/34 78/107/34 77/105/34
f 116/164/34 126/174/34 79/110/34 78/107/34
f 126/174/34 128/176/34 80/111/34 79/110/34
f 128/176/34 117/165/34 66/83/34 80/111/34
f 44/54/35 42/52/35 75/102/35 76/104/35
f 12/18/36 14/21/36 87/125/36 86/123/36
f 20/30/37 58/71/37 93/137/37 89/129/37
f 36/46/38 34/44/38 71/94/38 72/96/38
f 24/34/39 52/62/39 80/112/39 66/84/39
f 14/21/40 16/23/40 88/127/40 87/125/40
f 28/38/41 26/36/41 67/86/41 68/88/41
f 46/56/42 44/54/42 76/104/42 77/106/42
f 2/3/43 4/6/43 81/113/43 82/115/43
f 18/27/44 20/30/44 89/129/44 90/131/44
f 38/48/45 36/46/45 72/96/45 73/98/45
f 4/6/46 6/9/46 83/117/46 81/113/46
f 30/40/47 28/38/47 68/88/47 69/90/47
f 48/58/48 46/56/48 77/106/48 78/108/48
f 56/68/49 54/65/49 92/135/49 91/133/49
f 40/50/50 38/48/50 73/98/50 74/100/50
f 91/134/34 92/136/34 118/166/34 127/175/34
f 125/173/7 127/175/7 159/207/7 157/205/7
f 93/138/34 91/134/34 127/175/34 125/173/34
f 120/168/9 112/160/9 144/192/9 152/200/9
f 89/130/34 93/138/34 125/173/34 115/163/34
f 97/145/10 99/147/10 131/179/10 129/177/10
f 90/132/34 89/130/34 115/163/34 113/161/34
f 117/165/16 128/176/16 160/208/16 149/197/16
f 95/142/34 90/132/34 113/161/34 123/171/34
f 111/159/1 119/167/1 151/199/1 143/191/1
f 94/140/34 95/142/34 123/171/34 121/169/34
f 102/150/3 100/148/3 132/180/3 134/182/3
f 96/144/34 94/140/34 121/169/34 119/167/34
f 127/175/8 118/166/8 150/198/8 159/207/8
f 88/128/34 96/144/34 119/167/34 111/159/34
f 122/170/10 120/168/10 152/200/10 154/202/10
f 87/126/34 88/128/34 111/159/34 109/157/34
f 99/147/11 101/149/11 133/181/11 131/179/11
f 86/124/34 87/126/34 109/157/34 107/155/34
f 119/167/2 121/169/2 153/201/2 151/199/2
f 85/122/34 86/124/34 107/155/34 105/153/34
f 104/152/4 102/150/4 134/182/4 136/184/4
f 84/120/34 85/122/34 105/153/34 103/151/34
f 124/172/11 122/170/11 154/202/11 156/204/11
f 83/118/34 84/120/34 103/151/34 101/149/34
f 101/149/12 103/151/12 135/183/12 133/181/12
f 81/114/34 83/118/34 101/149/34 99/147/34
f 121/169/3 123/171/3 155/203/3 153/201/3
f 82/116/34 81/114/34 99/147/34 97/145/34
f 106/154/5 104/152/5 136/184/5 138/186/5
f 92/136/34 82/116/34 97/145/34 118/166/34
f 114/162/12 124/172/12 156/204/12 146/194/12
f 159/207/34 150/198/34 149/197/34 160/208/34
f 157/205/34 159/207/34 160/208/34 158/206/34
f 147/195/34 157/205/34 158/206/34 148/196/34
f 145/193/34 147/195/34 148/196/34 146/194/34
f 155/203/34 145/193/34 146/194/34 156/204/34
f 153/201/34 155/203/34 156/204/34 154/202/34
f 151/199/34 153/201/34 154/202/34 152/200/34
f 143/191/34 151/199/34 152/200/34 144/192/34
f 141/189/34 143/191/34 144/192/34 142/190/34
f 139/187/34 141/189/34 142/190/34 140/188/34
f 137/185/34 139/187/34 140/188/34 138/186/34
f 135/183/34 137/185/34 138/186/34 136/184/34
f 133/181/34 135/183/34 136/184/34 134/182/34
f 131/179/34 133/181/34 134/182/34 132/180/34
f 129/177/34 131/179/34 132/180/34 130/178/34
f 150/198/34 129/177/34 130/178/34 149/197/34
f 100/148/2 98/146/2 130/178/2 132/180/2
f 109/157/16 111/159/16 143/191/16 141/189/16
f 128/176/15 126/174/15 158/206/15 160/208/15
f 118/166/9 97/145/9 129/177/9 150/198/9
f 112/160/8 110/158/8 142/190/8 144/192/8
f 115/163/6 125/173/6 157/205/6 147/195/6
f 98/146/1 117/165/1 149/197/1 130/178/1
f 107/155/15 109/157/15 141/189/15 139/187/15
f 126/174/14 116/164/14 148/196/14 158/206/14
f 110/158/7 108/156/7 140/188/7 142/190/7
f 113/161/5 115/163/5 147/195/5 145/193/5
f 105/153/14 107/155/14 139/187/14 137/185/14
f 116/164/13 114/162/13 146/194/13 148/196/13
f 108/156/6 106/154/6 138/186/6 140/188/6
f 123/171/4 113/161/4 145/193/4 155/203/4
f 103/151/13 105/153/13 137/185/13 135/183/13
f 16/24/1 15/22/1 63/78/1 64/80/1
