# Blender 3.5.1
# www.blender.org
mtllib portal.mtl
o Portal
v -4.000000 -4.000000 -0.000000
v 4.000000 -4.000000 -0.000000
v -4.000000 4.000000 0.000000
v 4.000000 4.000000 0.000000
v -4.000000 4.000000 0.000000
v -4.000000 -4.000000 -0.000000
v 4.000000 -4.000000 -0.000000
v 4.000000 4.000000 0.000000
vn -0.0000 -0.0000 -1.0000
vn -0.0000 -0.0000 1.0000
vt 0.999900 0.999900
vt 0.000100 0.999900
vt 0.999900 0.000100
vt 0.000100 0.000100
vt 0.999900 0.000100
vt 0.999900 0.999900
vt 0.000100 0.999900
vt 0.000100 0.000100
s 0
usemtl Portal_Material
f 1/1/1 3/3/1 4/4/1 2/2/1
f 6/6/2 7/7/2 8/8/2 5/5/2
f 4/4/2 3/3/2 5/5/2 8/8/2
f 1/1/2 2/2/2 7/7/2 6/6/2
f 2/2/2 4/4/2 8/8/2 7/7/2
f 3/3/2 1/1/2 6/6/2 5/5/2
